# xmcd CD database file
#
# Track frame offsets:
#	150
#	15258
#	28310
#	40705
#	53701
#	65276
#	80425
#	92740
#	108840
#	120747
#	136784
#	147869
#
# Disc length: 2200 seconds
#
# Revision: 0
# Processed by: cddbd v1.5.2PL0 Copyright (c) Steve Scherf et al.
# Submitted via: ACXtractor (MTCDDB.DLL V2003.12.21)
#
DISCID=9108960c
DTITLE=Rachel Jillett - Forever Country
DYEAR=2012
DGENRE=Country
TTITLE0=I'll Need Someone to Hold me When I Cry
TTITLE1=Who Left the Door to Heaven Open
TTITLE2=When It's Lamplighting Time in the Valley
TTITLE3=Stolen Moments
TTITLE4=My Heart Skips a Beat
TTITLE5=The Picture
TTITLE6=The Church in the Wildwood
TTITLE7=If Teardrops Were Pennies
TTITLE8=Above and Beyond
TTITLE9=The Leaves Mustn't Fall
TTITLE10=Repossess My Heart
TTITLE11=God Be With You
EXTD=ID3G:   2 YEAR: 2012
EXTT0=
EXTT1=
EXTT2=
EXTT3=
EXTT4=
EXTT5=
EXTT6=
EXTT7=
EXTT8=
EXTT9=
EXTT10=
EXTT11=
PLAYORDER=
